# xmcd CD database file
#
# Track frame offsets:
#	150
#	21000
#	39775
#
# Disc length: 784 seconds
#
# Revision: 0
# Processed by: cddbd v1.5.1PL0 Copyright (c) Steve Scherf et al.
# Submitted via: CDex 1.51
#
DISCID=14030e03
DTITLE=GRAND SLAM - CAN'T STOP BELIEVIN'
DYEAR=1993
DGENRE=Hard Rock
TTITLE0=CAN'T STOP BELIEVIN'
TTITLE1=FEELS GOOD!!
TTITLE2=CAN'T STOP BELIEVIN' (Acoustic Version)
EXTD=YEAR: 1993
EXTT0=
EXTT1=
EXTT2=
PLAYORDER=
